<svg width="63" height="58" viewBox="0 0 63 58" fill="none" xmlns="http://www.w3.org/2000/svg">
<path d="M31.2267 57.5L42.7255 22.1272H19.7275L31.2267 57.5Z" fill="#E24329"/>
<path d="M31.2246 57.4995L19.7255 22.1267H3.61035L31.2246 57.4995Z" fill="#FC6D26"/>
<path d="M3.61083 22.1267L0.116541 32.8764C-0.038826 33.3543 -0.0388475 33.8691 0.11648 34.347C0.271807 34.8249 0.574508 35.2414 0.981203 35.5367L31.2251 57.4997L3.61059 22.127L3.61083 22.1267Z" fill="#FCA326"/>
<path d="M3.61035 22.1271H19.7255L12.8001 0.82213C12.4437 -0.274165 10.8921 -0.273921 10.5359 0.82213L3.61035 22.1271Z" fill="#E24329"/>
<path d="M31.2249 57.4995L42.7237 22.1267H58.8391L31.2249 57.4995Z" fill="#FC6D26"/>
<path d="M58.8389 22.1267L62.3332 32.8764C62.4885 33.3543 62.4885 33.8691 62.3331 34.347C62.1777 34.8249 61.875 35.2414 61.4682 35.5367L31.2246 57.4997L58.8389 22.127V22.1267Z" fill="#FCA326"/>
<path d="M58.838 22.1271H42.7227L49.6483 0.82213C50.0047 -0.274165 51.5563 -0.273921 51.9124 0.82213L58.838 22.1271Z" fill="#E24329"/>
</svg>
